<svg width="459" height="441" viewBox="0 0 459 441" fill="none" xmlns="http://www.w3.org/2000/svg">
<path d="M440.729 0.760239L439.208 1.52048V0L440.729 0.760239Z" fill="black"/>
<path d="M420.176 0.760239L418.655 1.52048V0L420.176 0.760239Z" fill="black"/>
<path d="M399.624 0.760239L398.103 1.52048V0L399.624 0.760239Z" fill="black"/>
<path d="M379.071 0.760239L377.55 1.52048V0L379.071 0.760239Z" fill="black"/>
<path d="M358.519 0.760239L356.998 1.52048V0L358.519 0.760239Z" fill="black"/>
<path d="M337.966 0.760239L336.445 1.52048V0L337.966 0.760239Z" fill="black"/>
<path d="M317.414 0.760239L315.893 1.52048V0L317.414 0.760239Z" fill="black"/>
<path d="M296.861 0.760239L295.34 1.52048V0L296.861 0.760239Z" fill="black"/>
<path d="M276.308 0.760239L274.788 1.52048V0L276.308 0.760239Z" fill="black"/>
<path d="M255.756 0.760239L254.235 1.52048V0L255.756 0.760239Z" fill="black"/>
<path d="M235.203 0.760239L233.682 1.52048V0L235.203 0.760239Z" fill="black"/>
<path d="M214.651 0.760239L213.13 1.52048V0L214.651 0.760239Z" fill="black"/>
<path d="M194.098 0.760239L192.577 1.52048V0L194.098 0.760239Z" fill="black"/>
<path d="M173.546 0.760239L172.025 1.52048V0L173.546 0.760239Z" fill="black"/>
<path d="M152.993 0.760239L151.472 1.52048V0L152.993 0.760239Z" fill="black"/>
<path d="M132.441 0.760239L130.92 1.52048V0L132.441 0.760239Z" fill="black"/>
<path d="M111.888 0.760239L110.367 1.52048V0L111.888 0.760239Z" fill="black"/>
<path d="M91.3355 0.760239L89.8146 1.52048V0L91.3355 0.760239Z" fill="black"/>
<path d="M70.7829 0.760239L69.2621 1.52048V0L70.7829 0.760239Z" fill="black"/>
<path d="M50.2304 0.760239L48.7095 1.52048V0L50.2304 0.760239Z" fill="black"/>
<path d="M29.6779 0.760239L28.157 1.52048V0L29.6779 0.760239Z" fill="black"/>
<path d="M9.12531 0.760239L7.60442 1.52048V0L9.12531 0.760239Z" fill="black"/>
<path d="M451.396 21.3072L449.094 22.4579V20.1566L451.396 21.3072Z" fill="black"/>
<path d="M430.843 21.3072L428.541 22.4579V20.1566L430.843 21.3072Z" fill="black"/>
<path d="M410.29 21.3072L407.989 22.4579V20.1566L410.29 21.3072Z" fill="black"/>
<path d="M389.738 21.3072L387.436 22.4579V20.1566L389.738 21.3072Z" fill="black"/>
<path d="M369.185 21.3072L366.884 22.4579V20.1566L369.185 21.3072Z" fill="black"/>
<path d="M348.633 21.3072L346.331 22.4579V20.1566L348.633 21.3072Z" fill="black"/>
<path d="M328.08 21.3072L325.778 22.4579V20.1566L328.08 21.3072Z" fill="black"/>
<path d="M307.528 21.3072L305.226 22.4579V20.1566L307.528 21.3072Z" fill="black"/>
<path d="M286.975 21.3072L284.673 22.4579V20.1566L286.975 21.3072Z" fill="black"/>
<path d="M266.423 21.3072L264.121 22.4579V20.1566L266.423 21.3072Z" fill="black"/>
<path d="M245.87 21.3072L243.568 22.4579V20.1566L245.87 21.3072Z" fill="black"/>
<path d="M225.318 21.3072L223.016 22.4579V20.1566L225.318 21.3072Z" fill="black"/>
<path d="M204.765 21.3072L202.463 22.4579V20.1566L204.765 21.3072Z" fill="black"/>
<path d="M184.212 21.3072L181.911 22.4579V20.1566L184.212 21.3072Z" fill="black"/>
<path d="M163.66 21.3072L161.358 22.4579V20.1566L163.66 21.3072Z" fill="black"/>
<path d="M143.107 21.3072L140.805 22.4579V20.1566L143.107 21.3072Z" fill="black"/>
<path d="M122.555 21.3072L120.253 22.4579V20.1566L122.555 21.3072Z" fill="black"/>
<path d="M102.002 21.3072L99.7004 22.4579V20.1566L102.002 21.3072Z" fill="black"/>
<path d="M81.4497 21.3072L79.1478 22.4579V20.1566L81.4497 21.3072Z" fill="black"/>
<path d="M60.8972 21.3072L58.5953 22.4579V20.1566L60.8972 21.3072Z" fill="black"/>
<path d="M40.3446 21.3072L38.0427 22.4579V20.1566L40.3446 21.3072Z" fill="black"/>
<path d="M19.7921 21.3072L17.4902 22.4579V20.1566L19.7921 21.3072Z" fill="black"/>
<path d="M441.489 41.8542L438.447 43.3747V40.3337L441.489 41.8542Z" fill="black"/>
<path d="M420.937 41.8542L417.895 43.3747V40.3337L420.937 41.8542Z" fill="black"/>
<path d="M400.384 41.8542L397.342 43.3747V40.3337L400.384 41.8542Z" fill="black"/>
<path d="M379.832 41.8542L376.79 43.3747V40.3337L379.832 41.8542Z" fill="black"/>
<path d="M359.279 41.8542L356.237 43.3747V40.3337L359.279 41.8542Z" fill="black"/>
<path d="M338.727 41.8542L335.685 43.3747V40.3337L338.727 41.8542Z" fill="black"/>
<path d="M318.174 41.8542L315.132 43.3747V40.3337L318.174 41.8542Z" fill="black"/>
<path d="M297.621 41.8542L294.58 43.3747V40.3337L297.621 41.8542Z" fill="black"/>
<path d="M277.069 41.8542L274.027 43.3747V40.3337L277.069 41.8542Z" fill="black"/>
<path d="M256.516 41.8542L253.475 43.3747V40.3337L256.516 41.8542Z" fill="black"/>
<path d="M235.964 41.8542L232.922 43.3747V40.3337L235.964 41.8542Z" fill="black"/>
<path d="M215.411 41.8542L212.369 43.3747V40.3337L215.411 41.8542Z" fill="black"/>
<path d="M194.859 41.8542L191.817 43.3747V40.3337L194.859 41.8542Z" fill="black"/>
<path d="M174.306 41.8542L171.264 43.3747V40.3337L174.306 41.8542Z" fill="black"/>
<path d="M153.754 41.8542L150.712 43.3747V40.3337L153.754 41.8542Z" fill="black"/>
<path d="M133.201 41.8542L130.159 43.3747V40.3337L133.201 41.8542Z" fill="black"/>
<path d="M112.649 41.8542L109.607 43.3747V40.3337L112.649 41.8542Z" fill="black"/>
<path d="M92.096 41.8542L89.0542 43.3747V40.3337L92.096 41.8542Z" fill="black"/>
<path d="M71.5434 41.8542L68.5016 43.3747V40.3337L71.5434 41.8542Z" fill="black"/>
<path d="M50.9909 41.8542L47.9491 43.3747V40.3337L50.9909 41.8542Z" fill="black"/>
<path d="M30.4383 41.8542L27.3965 43.3747V40.3337L30.4383 41.8542Z" fill="black"/>
<path d="M9.88577 41.8542L6.844 43.3747V40.3337L9.88577 41.8542Z" fill="black"/>
<path d="M452.156 62.4012L448.333 64.3121V60.4903L452.156 62.4012Z" fill="black"/>
<path d="M431.603 62.4012L427.781 64.3121V60.4903L431.603 62.4012Z" fill="black"/>
<path d="M411.051 62.4012L407.228 64.3121V60.4903L411.051 62.4012Z" fill="black"/>
<path d="M390.498 62.4012L386.676 64.3121V60.4903L390.498 62.4012Z" fill="black"/>
<path d="M369.946 62.4012L366.123 64.3121V60.4903L369.946 62.4012Z" fill="black"/>
<path d="M349.393 62.4012L345.57 64.3121V60.4903L349.393 62.4012Z" fill="black"/>
<path d="M328.841 62.4012L325.018 64.3121V60.4903L328.841 62.4012Z" fill="black"/>
<path d="M308.288 62.4012L304.465 64.3121V60.4903L308.288 62.4012Z" fill="black"/>
<path d="M287.736 62.4012L283.913 64.3121V60.4903L287.736 62.4012Z" fill="black"/>
<path d="M267.183 62.4012L263.36 64.3121V60.4903L267.183 62.4012Z" fill="black"/>
<path d="M246.631 62.4012L242.808 64.3121V60.4903L246.631 62.4012Z" fill="black"/>
<path d="M226.078 62.4012L222.255 64.3121V60.4903L226.078 62.4012Z" fill="black"/>
<path d="M205.525 62.4012L201.703 64.3121V60.4903L205.525 62.4012Z" fill="black"/>
<path d="M184.973 62.4012L181.15 64.3121V60.4903L184.973 62.4012Z" fill="black"/>
<path d="M164.42 62.4012L160.598 64.3121V60.4903L164.42 62.4012Z" fill="black"/>
<path d="M143.868 62.4012L140.045 64.3121V60.4903L143.868 62.4012Z" fill="black"/>
<path d="M123.315 62.4012L119.492 64.3121V60.4903L123.315 62.4012Z" fill="black"/>
<path d="M102.763 62.4012L98.9399 64.3121V60.4903L102.763 62.4012Z" fill="black"/>
<path d="M82.2102 62.4012L78.3874 64.3121V60.4903L82.2102 62.4012Z" fill="black"/>
<path d="M61.6576 62.4012L57.8348 64.3121V60.4903L61.6576 62.4012Z" fill="black"/>
<path d="M41.1051 62.4012L37.2823 64.3121V60.4903L41.1051 62.4012Z" fill="black"/>
<path d="M20.5525 62.4012L16.7297 64.3121V60.4903L20.5525 62.4012Z" fill="black"/>
<path d="M442.25 82.9482L437.687 85.2289V80.6675L442.25 82.9482Z" fill="black"/>
<path d="M421.697 82.9482L417.134 85.2289V80.6675L421.697 82.9482Z" fill="black"/>
<path d="M401.145 82.9482L396.582 85.2289V80.6675L401.145 82.9482Z" fill="black"/>
<path d="M380.592 82.9482L376.029 85.2289V80.6675L380.592 82.9482Z" fill="black"/>
<path d="M360.039 82.9482L355.477 85.2289V80.6675L360.039 82.9482Z" fill="black"/>
<path d="M339.487 82.9482L334.924 85.2289V80.6675L339.487 82.9482Z" fill="black"/>
<path d="M318.934 82.9482L314.372 85.2289V80.6675L318.934 82.9482Z" fill="black"/>
<path d="M298.382 82.9482L293.819 85.2289V80.6675L298.382 82.9482Z" fill="black"/>
<path d="M277.829 82.9482L273.267 85.2289V80.6675L277.829 82.9482Z" fill="black"/>
<path d="M257.277 82.9482L252.714 85.2289V80.6675L257.277 82.9482Z" fill="black"/>
<path d="M236.724 82.9482L232.162 85.2289V80.6675L236.724 82.9482Z" fill="black"/>
<path d="M216.172 82.9482L211.609 85.2289V80.6675L216.172 82.9482Z" fill="black"/>
<path d="M195.619 82.9482L191.056 85.2289V80.6675L195.619 82.9482Z" fill="black"/>
<path d="M175.067 82.9482L170.504 85.2289V80.6675L175.067 82.9482Z" fill="black"/>
<path d="M154.514 82.9482L149.951 85.2289V80.6675L154.514 82.9482Z" fill="black"/>
<path d="M133.961 82.9482L129.399 85.2289V80.6675L133.961 82.9482Z" fill="black"/>
<path d="M113.409 82.9482L108.846 85.2289V80.6675L113.409 82.9482Z" fill="black"/>
<path d="M92.8564 82.9482L88.2937 85.2289V80.6675L92.8564 82.9482Z" fill="black"/>
<path d="M72.3038 82.9482L67.7412 85.2289V80.6675L72.3038 82.9482Z" fill="black"/>
<path d="M51.7513 82.9482L47.1886 85.2289V80.6675L51.7513 82.9482Z" fill="black"/>
<path d="M31.1988 82.9482L26.6361 85.2289V80.6675L31.1988 82.9482Z" fill="black"/>
<path d="M10.6462 82.9482L6.08354 85.2289V80.6675L10.6462 82.9482Z" fill="black"/>
<path d="M452.916 103.495L447.573 106.166V100.824L452.916 103.495Z" fill="black"/>
<path d="M432.364 103.495L427.02 106.166V100.824L432.364 103.495Z" fill="black"/>
<path d="M411.811 103.495L406.468 106.166V100.824L411.811 103.495Z" fill="black"/>
<path d="M391.259 103.495L385.915 106.166V100.824L391.259 103.495Z" fill="black"/>
<path d="M370.706 103.495L365.363 106.166V100.824L370.706 103.495Z" fill="black"/>
<path d="M350.154 103.495L344.81 106.166V100.824L350.154 103.495Z" fill="black"/>
<path d="M329.601 103.495L324.258 106.166V100.824L329.601 103.495Z" fill="black"/>
<path d="M309.049 103.495L303.705 106.166V100.824L309.049 103.495Z" fill="black"/>
<path d="M288.496 103.495L283.152 106.166V100.824L288.496 103.495Z" fill="black"/>
<path d="M267.944 103.495L262.6 106.166V100.824L267.944 103.495Z" fill="black"/>
<path d="M247.391 103.495L242.047 106.166V100.824L247.391 103.495Z" fill="black"/>
<path d="M226.838 103.495L221.495 106.166V100.824L226.838 103.495Z" fill="black"/>
<path d="M206.286 103.495L200.942 106.166V100.824L206.286 103.495Z" fill="black"/>
<path d="M185.733 103.495L180.39 106.166V100.824L185.733 103.495Z" fill="black"/>
<path d="M165.181 103.495L159.837 106.166V100.824L165.181 103.495Z" fill="black"/>
<path d="M144.628 103.495L139.285 106.166V100.824L144.628 103.495Z" fill="black"/>
<path d="M124.076 103.495L118.732 106.166V100.824L124.076 103.495Z" fill="black"/>
<path d="M103.523 103.495L98.1795 106.166V100.824L103.523 103.495Z" fill="black"/>
<path d="M82.9706 103.495L77.627 106.166V100.824L82.9706 103.495Z" fill="black"/>
<path d="M62.4181 103.495L57.0744 106.166V100.824L62.4181 103.495Z" fill="black"/>
<path d="M41.8655 103.495L36.5219 106.166V100.824L41.8655 103.495Z" fill="black"/>
<path d="M21.313 103.495L15.9693 106.166V100.824L21.313 103.495Z" fill="black"/>
<path d="M443.01 124.042L436.927 127.083V121.001L443.01 124.042Z" fill="black"/>
<path d="M422.458 124.042L416.374 127.083V121.001L422.458 124.042Z" fill="black"/>
<path d="M401.905 124.042L395.821 127.083V121.001L401.905 124.042Z" fill="black"/>
<path d="M381.352 124.042L375.269 127.083V121.001L381.352 124.042Z" fill="black"/>
<path d="M360.8 124.042L354.716 127.083V121.001L360.8 124.042Z" fill="black"/>
<path d="M340.247 124.042L334.164 127.083V121.001L340.247 124.042Z" fill="black"/>
<path d="M319.695 124.042L313.611 127.083V121.001L319.695 124.042Z" fill="black"/>
<path d="M299.142 124.042L293.059 127.083V121.001L299.142 124.042Z" fill="black"/>
<path d="M278.59 124.042L272.506 127.083V121.001L278.59 124.042Z" fill="black"/>
<path d="M258.037 124.042L251.954 127.083V121.001L258.037 124.042Z" fill="black"/>
<path d="M237.485 124.042L231.401 127.083V121.001L237.485 124.042Z" fill="black"/>
<path d="M216.932 124.042L210.849 127.083V121.001L216.932 124.042Z" fill="black"/>
<path d="M196.38 124.042L190.296 127.083V121.001L196.38 124.042Z" fill="black"/>
<path d="M175.827 124.042L169.743 127.083V121.001L175.827 124.042Z" fill="black"/>
<path d="M155.274 124.042L149.191 127.083V121.001L155.274 124.042Z" fill="black"/>
<path d="M134.722 124.042L128.638 127.083V121.001L134.722 124.042Z" fill="black"/>
<path d="M114.169 124.042L108.086 127.083V121.001L114.169 124.042Z" fill="black"/>
<path d="M93.6168 124.042L87.5333 127.083V121.001L93.6168 124.042Z" fill="black"/>
<path d="M73.0643 124.042L66.9807 127.083V121.001L73.0643 124.042Z" fill="black"/>
<path d="M52.5117 124.042L46.4282 127.083V121.001L52.5117 124.042Z" fill="black"/>
<path d="M31.9592 124.042L25.8756 127.083V121.001L31.9592 124.042Z" fill="black"/>
<path d="M11.4066 124.042L5.32309 127.083V121.001L11.4066 124.042Z" fill="black"/>
<path d="M453.677 144.589L446.812 148.02V141.158L453.677 144.589Z" fill="black"/>
<path d="M433.124 144.589L426.26 148.02V141.158L433.124 144.589Z" fill="black"/>
<path d="M412.572 144.589L405.707 148.02V141.158L412.572 144.589Z" fill="black"/>
<path d="M392.019 144.589L385.155 148.02V141.158L392.019 144.589Z" fill="black"/>
<path d="M371.467 144.589L364.602 148.02V141.158L371.467 144.589Z" fill="black"/>
<path d="M350.914 144.589L344.05 148.02V141.158L350.914 144.589Z" fill="black"/>
<path d="M330.362 144.589L323.497 148.02V141.158L330.362 144.589Z" fill="black"/>
<path d="M309.809 144.589L302.944 148.02V141.158L309.809 144.589Z" fill="black"/>
<path d="M289.257 144.589L282.392 148.02V141.158L289.257 144.589Z" fill="black"/>
<path d="M268.704 144.589L261.839 148.02V141.158L268.704 144.589Z" fill="black"/>
<path d="M248.151 144.589L241.287 148.02V141.158L248.151 144.589Z" fill="black"/>
<path d="M227.599 144.589L220.734 148.02V141.158L227.599 144.589Z" fill="black"/>
<path d="M207.046 144.589L200.182 148.02V141.158L207.046 144.589Z" fill="black"/>
<path d="M186.494 144.589L179.629 148.02V141.158L186.494 144.589Z" fill="black"/>
<path d="M165.941 144.589L159.077 148.02V141.158L165.941 144.589Z" fill="black"/>
<path d="M145.389 144.589L138.524 148.02V141.158L145.389 144.589Z" fill="black"/>
<path d="M124.836 144.589L117.972 148.02V141.158L124.836 144.589Z" fill="black"/>
<path d="M104.284 144.589L97.4191 148.02V141.158L104.284 144.589Z" fill="black"/>
<path d="M83.7311 144.589L76.8665 148.02V141.158L83.7311 144.589Z" fill="black"/>
<path d="M63.1785 144.589L56.314 148.02V141.158L63.1785 144.589Z" fill="black"/>
<path d="M42.626 144.589L35.7614 148.02V141.158L42.626 144.589Z" fill="black"/>
<path d="M22.0734 144.589L15.2089 148.02V141.158L22.0734 144.589Z" fill="black"/>
<path d="M443.771 165.136L436.166 168.937V161.335L443.771 165.136Z" fill="black"/>
<path d="M423.218 165.136L415.614 168.937V161.335L423.218 165.136Z" fill="black"/>
<path d="M402.665 165.136L395.061 168.937V161.335L402.665 165.136Z" fill="black"/>
<path d="M382.113 165.136L374.508 168.937V161.335L382.113 165.136Z" fill="black"/>
<path d="M361.56 165.136L353.956 168.937V161.335L361.56 165.136Z" fill="black"/>
<path d="M341.008 165.136L333.403 168.937V161.335L341.008 165.136Z" fill="black"/>
<path d="M320.455 165.136L312.851 168.937V161.335L320.455 165.136Z" fill="black"/>
<path d="M299.903 165.136L292.298 168.937V161.335L299.903 165.136Z" fill="black"/>
<path d="M279.35 165.136L271.746 168.937V161.335L279.35 165.136Z" fill="black"/>
<path d="M258.798 165.136L251.193 168.937V161.335L258.798 165.136Z" fill="black"/>
<path d="M238.245 165.136L230.641 168.937V161.335L238.245 165.136Z" fill="black"/>
<path d="M217.693 165.136L210.088 168.937V161.335L217.693 165.136Z" fill="black"/>
<path d="M197.14 165.136L189.536 168.937V161.335L197.14 165.136Z" fill="black"/>
<path d="M176.587 165.136L168.983 168.937V161.335L176.587 165.136Z" fill="black"/>
<path d="M156.035 165.136L148.43 168.937V161.335L156.035 165.136Z" fill="black"/>
<path d="M135.482 165.136L127.878 168.937V161.335L135.482 165.136Z" fill="black"/>
<path d="M114.93 165.136L107.325 168.937V161.335L114.93 165.136Z" fill="black"/>
<path d="M94.3773 165.136L86.7729 168.937V161.335L94.3773 165.136Z" fill="black"/>
<path d="M73.8247 165.136L66.2203 168.937V161.335L73.8247 165.136Z" fill="black"/>
<path d="M53.2722 165.136L45.6678 168.937V161.335L53.2722 165.136Z" fill="black"/>
<path d="M32.7197 165.136L25.1152 168.937V161.335L32.7197 165.136Z" fill="black"/>
<path d="M12.1671 165.136L4.56266 168.937V161.335L12.1671 165.136Z" fill="black"/>
<path d="M454.437 185.683L446.052 189.875V181.492L454.437 185.683Z" fill="black"/>
<path d="M433.885 185.683L425.499 189.875V181.492L433.885 185.683Z" fill="black"/>
<path d="M413.332 185.683L404.947 189.875V181.492L413.332 185.683Z" fill="black"/>
<path d="M392.78 185.683L384.394 189.875V181.492L392.78 185.683Z" fill="black"/>
<path d="M372.227 185.683L363.842 189.875V181.492L372.227 185.683Z" fill="black"/>
<path d="M351.675 185.683L343.289 189.875V181.492L351.675 185.683Z" fill="black"/>
<path d="M331.122 185.683L322.737 189.875V181.492L331.122 185.683Z" fill="black"/>
<path d="M310.57 185.683L302.184 189.875V181.492L310.57 185.683Z" fill="black"/>
<path d="M290.017 185.683L281.632 189.875V181.492L290.017 185.683Z" fill="black"/>
<path d="M269.464 185.683L261.079 189.875V181.492L269.464 185.683Z" fill="black"/>
<path d="M248.912 185.683L240.526 189.875V181.492L248.912 185.683Z" fill="black"/>
<path d="M228.359 185.683L219.974 189.875V181.492L228.359 185.683Z" fill="black"/>
<path d="M207.807 185.683L199.421 189.875V181.492L207.807 185.683Z" fill="black"/>
<path d="M187.254 185.683L178.869 189.875V181.492L187.254 185.683Z" fill="black"/>
<path d="M166.702 185.683L158.316 189.875V181.492L166.702 185.683Z" fill="black"/>
<path d="M146.149 185.683L137.764 189.875V181.492L146.149 185.683Z" fill="black"/>
<path d="M125.597 185.683L117.211 189.875V181.492L125.597 185.683Z" fill="black"/>
<path d="M105.044 185.683L96.6586 189.875V181.492L105.044 185.683Z" fill="black"/>
<path d="M84.4915 185.683L76.1061 189.875V181.492L84.4915 185.683Z" fill="black"/>
<path d="M63.9389 185.683L55.5535 189.875V181.492L63.9389 185.683Z" fill="black"/>
<path d="M43.3864 185.683L35.001 189.875V181.492L43.3864 185.683Z" fill="black"/>
<path d="M22.8339 185.683L14.4484 189.875V181.492L22.8339 185.683Z" fill="black"/>
<path d="M444.531 206.23L435.406 210.792V201.669L444.531 206.23Z" fill="black"/>
<path d="M423.978 206.23L414.853 210.792V201.669L423.978 206.23Z" fill="black"/>
<path d="M403.426 206.23L394.301 210.792V201.669L403.426 206.23Z" fill="black"/>
<path d="M382.873 206.23L373.748 210.792V201.669L382.873 206.23Z" fill="black"/>
<path d="M362.321 206.23L353.195 210.792V201.669L362.321 206.23Z" fill="black"/>
<path d="M341.768 206.23L332.643 210.792V201.669L341.768 206.23Z" fill="black"/>
<path d="M321.216 206.23L312.09 210.792V201.669L321.216 206.23Z" fill="black"/>
<path d="M300.663 206.23L291.538 210.792V201.669L300.663 206.23Z" fill="black"/>
<path d="M280.111 206.23L270.985 210.792V201.669L280.111 206.23Z" fill="black"/>
<path d="M259.558 206.23L250.433 210.792V201.669L259.558 206.23Z" fill="black"/>
<path d="M239.006 206.23L229.88 210.792V201.669L239.006 206.23Z" fill="black"/>
<path d="M218.453 206.23L209.328 210.792V201.669L218.453 206.23Z" fill="black"/>
<path d="M197.9 206.23L188.775 210.792V201.669L197.9 206.23Z" fill="black"/>
<path d="M177.348 206.23L168.223 210.792V201.669L177.348 206.23Z" fill="black"/>
<path d="M156.795 206.23L147.67 210.792V201.669L156.795 206.23Z" fill="black"/>
<path d="M136.243 206.23L127.117 210.792V201.669L136.243 206.23Z" fill="black"/>
<path d="M115.69 206.23L106.565 210.792V201.669L115.69 206.23Z" fill="black"/>
<path d="M95.1377 206.23L86.0124 210.792V201.669L95.1377 206.23Z" fill="black"/>
<path d="M74.5852 206.23L65.4599 210.792V201.669L74.5852 206.23Z" fill="black"/>
<path d="M54.0326 206.23L44.9073 210.792V201.669L54.0326 206.23Z" fill="black"/>
<path d="M33.4801 206.23L24.3548 210.792V201.669L33.4801 206.23Z" fill="black"/>
<path d="M12.9275 206.23L3.80221 210.792V201.669L12.9275 206.23Z" fill="black"/>
<path d="M455.198 226.777L445.291 231.729V221.825L455.198 226.777Z" fill="black"/>
<path d="M434.645 226.777L424.739 231.729V221.825L434.645 226.777Z" fill="black"/>
<path d="M414.093 226.777L404.186 231.729V221.825L414.093 226.777Z" fill="black"/>
<path d="M393.54 226.777L383.634 231.729V221.825L393.54 226.777Z" fill="black"/>
<path d="M372.988 226.777L363.081 231.729V221.825L372.988 226.777Z" fill="black"/>
<path d="M352.435 226.777L342.529 231.729V221.825L352.435 226.777Z" fill="black"/>
<path d="M331.883 226.777L321.976 231.729V221.825L331.883 226.777Z" fill="black"/>
<path d="M311.33 226.777L301.424 231.729V221.825L311.33 226.777Z" fill="black"/>
<path d="M290.777 226.777L280.871 231.729V221.825L290.777 226.777Z" fill="black"/>
<path d="M270.225 226.777L260.319 231.729V221.825L270.225 226.777Z" fill="black"/>
<path d="M249.672 226.777L239.766 231.729V221.825L249.672 226.777Z" fill="black"/>
<path d="M229.12 226.777L219.213 231.729V221.825L229.12 226.777Z" fill="black"/>
<path d="M208.567 226.777L198.661 231.729V221.825L208.567 226.777Z" fill="black"/>
<path d="M188.015 226.777L178.108 231.729V221.825L188.015 226.777Z" fill="black"/>
<path d="M167.462 226.777L157.556 231.729V221.825L167.462 226.777Z" fill="black"/>
<path d="M146.91 226.777L137.003 231.729V221.825L146.91 226.777Z" fill="black"/>
<path d="M126.357 226.777L116.451 231.729V221.825L126.357 226.777Z" fill="black"/>
<path d="M105.805 226.777L95.8982 231.729V221.825L105.805 226.777Z" fill="black"/>
<path d="M85.252 226.777L75.3456 231.729V221.825L85.252 226.777Z" fill="black"/>
<path d="M64.6994 226.777L54.7931 231.729V221.825L64.6994 226.777Z" fill="black"/>
<path d="M44.1469 226.777L34.2405 231.729V221.825L44.1469 226.777Z" fill="black"/>
<path d="M23.5943 226.777L13.688 231.729V221.825L23.5943 226.777Z" fill="black"/>
<path d="M445.291 247.324L434.645 252.646V242.002L445.291 247.324Z" fill="black"/>
<path d="M424.739 247.324L414.093 252.646V242.002L424.739 247.324Z" fill="black"/>
<path d="M404.186 247.324L393.54 252.646V242.002L404.186 247.324Z" fill="black"/>
<path d="M383.634 247.324L372.988 252.646V242.002L383.634 247.324Z" fill="black"/>
<path d="M363.081 247.324L352.435 252.646V242.002L363.081 247.324Z" fill="black"/>
<path d="M342.529 247.324L331.883 252.646V242.002L342.529 247.324Z" fill="black"/>
<path d="M321.976 247.324L311.33 252.646V242.002L321.976 247.324Z" fill="black"/>
<path d="M301.424 247.324L290.777 252.646V242.002L301.424 247.324Z" fill="black"/>
<path d="M280.871 247.324L270.225 252.646V242.002L280.871 247.324Z" fill="black"/>
<path d="M260.319 247.324L249.672 252.646V242.002L260.319 247.324Z" fill="black"/>
<path d="M239.766 247.324L229.12 252.646V242.002L239.766 247.324Z" fill="black"/>
<path d="M219.213 247.324L208.567 252.646V242.002L219.213 247.324Z" fill="black"/>
<path d="M198.661 247.324L188.015 252.646V242.002L198.661 247.324Z" fill="black"/>
<path d="M178.108 247.324L167.462 252.646V242.002L178.108 247.324Z" fill="black"/>
<path d="M157.556 247.324L146.91 252.646V242.002L157.556 247.324Z" fill="black"/>
<path d="M137.003 247.324L126.357 252.646V242.002L137.003 247.324Z" fill="black"/>
<path d="M116.451 247.324L105.804 252.646V242.002L116.451 247.324Z" fill="black"/>
<path d="M95.8982 247.324L85.2519 252.646V242.002L95.8982 247.324Z" fill="black"/>
<path d="M75.3456 247.324L64.6994 252.646V242.002L75.3456 247.324Z" fill="black"/>
<path d="M54.7931 247.324L44.1469 252.646V242.002L54.7931 247.324Z" fill="black"/>
<path d="M34.2405 247.324L23.5943 252.646V242.002L34.2405 247.324Z" fill="black"/>
<path d="M13.688 247.324L3.04176 252.646V242.002L13.688 247.324Z" fill="black"/>
<path d="M455.958 267.871L444.531 273.583V262.159L455.958 267.871Z" fill="black"/>
<path d="M435.406 267.871L423.978 273.583V262.159L435.406 267.871Z" fill="black"/>
<path d="M414.853 267.871L403.426 273.583V262.159L414.853 267.871Z" fill="black"/>
<path d="M394.301 267.871L382.873 273.583V262.159L394.301 267.871Z" fill="black"/>
<path d="M373.748 267.871L362.321 273.583V262.159L373.748 267.871Z" fill="black"/>
<path d="M353.195 267.871L341.768 273.583V262.159L353.195 267.871Z" fill="black"/>
<path d="M332.643 267.871L321.216 273.583V262.159L332.643 267.871Z" fill="black"/>
<path d="M312.09 267.871L300.663 273.583V262.159L312.09 267.871Z" fill="black"/>
<path d="M291.538 267.871L280.111 273.583V262.159L291.538 267.871Z" fill="black"/>
<path d="M270.985 267.871L259.558 273.583V262.159L270.985 267.871Z" fill="black"/>
<path d="M250.433 267.871L239.006 273.583V262.159L250.433 267.871Z" fill="black"/>
<path d="M229.88 267.871L218.453 273.583V262.159L229.88 267.871Z" fill="black"/>
<path d="M209.328 267.871L197.9 273.583V262.159L209.328 267.871Z" fill="black"/>
<path d="M188.775 267.871L177.348 273.583V262.159L188.775 267.871Z" fill="black"/>
<path d="M168.223 267.871L156.795 273.583V262.159L168.223 267.871Z" fill="black"/>
<path d="M147.67 267.871L136.243 273.583V262.159L147.67 267.871Z" fill="black"/>
<path d="M127.117 267.871L115.69 273.583V262.159L127.117 267.871Z" fill="black"/>
<path d="M106.565 267.871L95.1377 273.583V262.159L106.565 267.871Z" fill="black"/>
<path d="M86.0124 267.871L74.5852 273.583V262.159L86.0124 267.871Z" fill="black"/>
<path d="M65.4598 267.871L54.0326 273.583V262.159L65.4598 267.871Z" fill="black"/>
<path d="M44.9073 267.871L33.4801 273.583V262.159L44.9073 267.871Z" fill="black"/>
<path d="M24.3548 267.871L12.9275 273.583V262.159L24.3548 267.871Z" fill="black"/>
<path d="M446.052 288.418L433.885 294.5V282.336L446.052 288.418Z" fill="black"/>
<path d="M425.499 288.418L413.332 294.5V282.336L425.499 288.418Z" fill="black"/>
<path d="M404.947 288.418L392.78 294.5V282.336L404.947 288.418Z" fill="black"/>
<path d="M384.394 288.418L372.227 294.5V282.336L384.394 288.418Z" fill="black"/>
<path d="M363.842 288.418L351.675 294.5V282.336L363.842 288.418Z" fill="black"/>
<path d="M343.289 288.418L331.122 294.5V282.336L343.289 288.418Z" fill="black"/>
<path d="M322.737 288.418L310.57 294.5V282.336L322.737 288.418Z" fill="black"/>
<path d="M302.184 288.418L290.017 294.5V282.336L302.184 288.418Z" fill="black"/>
<path d="M281.632 288.418L269.464 294.5V282.336L281.632 288.418Z" fill="black"/>
<path d="M261.079 288.418L248.912 294.5V282.336L261.079 288.418Z" fill="black"/>
<path d="M240.526 288.418L228.359 294.5V282.336L240.526 288.418Z" fill="black"/>
<path d="M219.974 288.418L207.807 294.5V282.336L219.974 288.418Z" fill="black"/>
<path d="M199.421 288.418L187.254 294.5V282.336L199.421 288.418Z" fill="black"/>
<path d="M178.869 288.418L166.702 294.5V282.336L178.869 288.418Z" fill="black"/>
<path d="M158.316 288.418L146.149 294.5V282.336L158.316 288.418Z" fill="black"/>
<path d="M137.764 288.418L125.597 294.5V282.336L137.764 288.418Z" fill="black"/>
<path d="M117.211 288.418L105.044 294.5V282.336L117.211 288.418Z" fill="black"/>
<path d="M96.6586 288.418L84.4915 294.5V282.336L96.6586 288.418Z" fill="black"/>
<path d="M76.1061 288.418L63.939 294.5V282.336L76.1061 288.418Z" fill="black"/>
<path d="M55.5535 288.418L43.3864 294.5V282.336L55.5535 288.418Z" fill="black"/>
<path d="M35.001 288.418L22.8339 294.5V282.336L35.001 288.418Z" fill="black"/>
<path d="M14.4484 288.418L2.28133 294.5V282.336L14.4484 288.418Z" fill="black"/>
<path d="M456.719 308.965L443.771 315.437V302.493L456.719 308.965Z" fill="black"/>
<path d="M436.166 308.965L423.218 315.437V302.493L436.166 308.965Z" fill="black"/>
<path d="M415.614 308.965L402.665 315.437V302.493L415.614 308.965Z" fill="black"/>
<path d="M395.061 308.965L382.113 315.437V302.493L395.061 308.965Z" fill="black"/>
<path d="M374.508 308.965L361.56 315.437V302.493L374.508 308.965Z" fill="black"/>
<path d="M353.956 308.965L341.008 315.437V302.493L353.956 308.965Z" fill="black"/>
<path d="M333.403 308.965L320.455 315.437V302.493L333.403 308.965Z" fill="black"/>
<path d="M312.851 308.965L299.903 315.437V302.493L312.851 308.965Z" fill="black"/>
<path d="M292.298 308.965L279.35 315.437V302.493L292.298 308.965Z" fill="black"/>
<path d="M271.746 308.965L258.798 315.437V302.493L271.746 308.965Z" fill="black"/>
<path d="M251.193 308.965L238.245 315.437V302.493L251.193 308.965Z" fill="black"/>
<path d="M230.641 308.965L217.693 315.437V302.493L230.641 308.965Z" fill="black"/>
<path d="M210.088 308.965L197.14 315.437V302.493L210.088 308.965Z" fill="black"/>
<path d="M189.536 308.965L176.587 315.437V302.493L189.536 308.965Z" fill="black"/>
<path d="M168.983 308.965L156.035 315.437V302.493L168.983 308.965Z" fill="black"/>
<path d="M148.43 308.965L135.482 315.437V302.493L148.43 308.965Z" fill="black"/>
<path d="M127.878 308.965L114.93 315.437V302.493L127.878 308.965Z" fill="black"/>
<path d="M107.325 308.965L94.3773 315.437V302.493L107.325 308.965Z" fill="black"/>
<path d="M86.7728 308.965L73.8247 315.437V302.493L86.7728 308.965Z" fill="black"/>
<path d="M66.2203 308.965L53.2722 315.437V302.493L66.2203 308.965Z" fill="black"/>
<path d="M45.6677 308.965L32.7196 315.437V302.493L45.6677 308.965Z" fill="black"/>
<path d="M25.1152 308.965L12.1671 315.437V302.493L25.1152 308.965Z" fill="black"/>
<path d="M446.812 329.512L433.124 336.354V322.67L446.812 329.512Z" fill="black"/>
<path d="M426.26 329.512L412.572 336.354V322.67L426.26 329.512Z" fill="black"/>
<path d="M405.707 329.512L392.019 336.354V322.67L405.707 329.512Z" fill="black"/>
<path d="M385.155 329.512L371.467 336.354V322.67L385.155 329.512Z" fill="black"/>
<path d="M364.602 329.512L350.914 336.354V322.67L364.602 329.512Z" fill="black"/>
<path d="M344.05 329.512L330.362 336.354V322.67L344.05 329.512Z" fill="black"/>
<path d="M323.497 329.512L309.809 336.354V322.67L323.497 329.512Z" fill="black"/>
<path d="M302.945 329.512L289.257 336.354V322.67L302.945 329.512Z" fill="black"/>
<path d="M282.392 329.512L268.704 336.354V322.67L282.392 329.512Z" fill="black"/>
<path d="M261.839 329.512L248.151 336.354V322.67L261.839 329.512Z" fill="black"/>
<path d="M241.287 329.512L227.599 336.354V322.67L241.287 329.512Z" fill="black"/>
<path d="M220.734 329.512L207.046 336.354V322.67L220.734 329.512Z" fill="black"/>
<path d="M200.182 329.512L186.494 336.354V322.67L200.182 329.512Z" fill="black"/>
<path d="M179.629 329.512L165.941 336.354V322.67L179.629 329.512Z" fill="black"/>
<path d="M159.077 329.512L145.389 336.354V322.67L159.077 329.512Z" fill="black"/>
<path d="M138.524 329.512L124.836 336.354V322.67L138.524 329.512Z" fill="black"/>
<path d="M117.972 329.512L104.284 336.354V322.67L117.972 329.512Z" fill="black"/>
<path d="M97.4191 329.512L83.7311 336.354V322.67L97.4191 329.512Z" fill="black"/>
<path d="M76.8665 329.512L63.1785 336.354V322.67L76.8665 329.512Z" fill="black"/>
<path d="M56.314 329.512L42.626 336.354V322.67L56.314 329.512Z" fill="black"/>
<path d="M35.7614 329.512L22.0734 336.354V322.67L35.7614 329.512Z" fill="black"/>
<path d="M15.2089 329.512L1.52088 336.354V322.67L15.2089 329.512Z" fill="black"/>
<path d="M457.479 350.059L443.01 357.292V342.826L457.479 350.059Z" fill="black"/>
<path d="M436.927 350.059L422.458 357.292V342.826L436.927 350.059Z" fill="black"/>
<path d="M416.374 350.059L401.905 357.292V342.826L416.374 350.059Z" fill="black"/>
<path d="M395.821 350.059L381.352 357.292V342.826L395.821 350.059Z" fill="black"/>
<path d="M375.269 350.059L360.8 357.292V342.826L375.269 350.059Z" fill="black"/>
<path d="M354.716 350.059L340.247 357.292V342.826L354.716 350.059Z" fill="black"/>
<path d="M334.164 350.059L319.695 357.292V342.826L334.164 350.059Z" fill="black"/>
<path d="M313.611 350.059L299.142 357.292V342.826L313.611 350.059Z" fill="black"/>
<path d="M293.059 350.059L278.59 357.292V342.826L293.059 350.059Z" fill="black"/>
<path d="M272.506 350.059L258.037 357.292V342.826L272.506 350.059Z" fill="black"/>
<path d="M251.954 350.059L237.485 357.292V342.826L251.954 350.059Z" fill="black"/>
<path d="M231.401 350.059L216.932 357.292V342.826L231.401 350.059Z" fill="black"/>
<path d="M210.849 350.059L196.38 357.292V342.826L210.849 350.059Z" fill="black"/>
<path d="M190.296 350.059L175.827 357.292V342.826L190.296 350.059Z" fill="black"/>
<path d="M169.743 350.059L155.274 357.292V342.826L169.743 350.059Z" fill="black"/>
<path d="M149.191 350.059L134.722 357.292V342.826L149.191 350.059Z" fill="black"/>
<path d="M128.638 350.059L114.169 357.292V342.826L128.638 350.059Z" fill="black"/>
<path d="M108.086 350.059L93.6168 357.292V342.826L108.086 350.059Z" fill="black"/>
<path d="M87.5333 350.059L73.0643 357.292V342.826L87.5333 350.059Z" fill="black"/>
<path d="M66.9807 350.059L52.5118 357.292V342.826L66.9807 350.059Z" fill="black"/>
<path d="M46.4282 350.059L31.9592 357.292V342.826L46.4282 350.059Z" fill="black"/>
<path d="M25.8757 350.059L11.4067 357.292V342.826L25.8757 350.059Z" fill="black"/>
<path d="M447.573 370.606L432.364 378.208V363.004L447.573 370.606Z" fill="black"/>
<path d="M427.02 370.606L411.811 378.208V363.004L427.02 370.606Z" fill="black"/>
<path d="M406.468 370.606L391.259 378.208V363.004L406.468 370.606Z" fill="black"/>
<path d="M385.915 370.606L370.706 378.208V363.004L385.915 370.606Z" fill="black"/>
<path d="M365.363 370.606L350.154 378.208V363.004L365.363 370.606Z" fill="black"/>
<path d="M344.81 370.606L329.601 378.208V363.004L344.81 370.606Z" fill="black"/>
<path d="M324.258 370.606L309.049 378.208V363.004L324.258 370.606Z" fill="black"/>
<path d="M303.705 370.606L288.496 378.208V363.004L303.705 370.606Z" fill="black"/>
<path d="M283.152 370.606L267.944 378.208V363.004L283.152 370.606Z" fill="black"/>
<path d="M262.6 370.606L247.391 378.208V363.004L262.6 370.606Z" fill="black"/>
<path d="M242.047 370.606L226.838 378.208V363.004L242.047 370.606Z" fill="black"/>
<path d="M221.495 370.606L206.286 378.208V363.004L221.495 370.606Z" fill="black"/>
<path d="M200.942 370.606L185.733 378.208V363.004L200.942 370.606Z" fill="black"/>
<path d="M180.39 370.606L165.181 378.208V363.004L180.39 370.606Z" fill="black"/>
<path d="M159.837 370.606L144.628 378.208V363.004L159.837 370.606Z" fill="black"/>
<path d="M139.285 370.606L124.076 378.208V363.004L139.285 370.606Z" fill="black"/>
<path d="M118.732 370.606L103.523 378.208V363.004L118.732 370.606Z" fill="black"/>
<path d="M98.1795 370.606L82.9706 378.208V363.004L98.1795 370.606Z" fill="black"/>
<path d="M77.6269 370.606L62.4181 378.208V363.004L77.6269 370.606Z" fill="black"/>
<path d="M57.0744 370.606L41.8655 378.208V363.004L57.0744 370.606Z" fill="black"/>
<path d="M36.5219 370.606L21.313 378.208V363.004L36.5219 370.606Z" fill="black"/>
<path d="M15.9693 370.606L0.760423 378.208V363.004L15.9693 370.606Z" fill="black"/>
<path d="M458.24 391.153L442.25 399.146V383.16L458.24 391.153Z" fill="black"/>
<path d="M437.687 391.153L421.697 399.146V383.16L437.687 391.153Z" fill="black"/>
<path d="M417.134 391.153L401.145 399.146V383.16L417.134 391.153Z" fill="black"/>
<path d="M396.582 391.153L380.592 399.146V383.16L396.582 391.153Z" fill="black"/>
<path d="M376.029 391.153L360.039 399.146V383.16L376.029 391.153Z" fill="black"/>
<path d="M355.477 391.153L339.487 399.146V383.16L355.477 391.153Z" fill="black"/>
<path d="M334.924 391.153L318.934 399.146V383.16L334.924 391.153Z" fill="black"/>
<path d="M314.372 391.153L298.382 399.146V383.16L314.372 391.153Z" fill="black"/>
<path d="M293.819 391.153L277.829 399.146V383.16L293.819 391.153Z" fill="black"/>
<path d="M273.267 391.153L257.277 399.146V383.16L273.267 391.153Z" fill="black"/>
<path d="M252.714 391.153L236.724 399.146V383.16L252.714 391.153Z" fill="black"/>
<path d="M232.162 391.153L216.172 399.146V383.16L232.162 391.153Z" fill="black"/>
<path d="M211.609 391.153L195.619 399.146V383.16L211.609 391.153Z" fill="black"/>
<path d="M191.056 391.153L175.067 399.146V383.16L191.056 391.153Z" fill="black"/>
<path d="M170.504 391.153L154.514 399.146V383.16L170.504 391.153Z" fill="black"/>
<path d="M149.951 391.153L133.961 399.146V383.16L149.951 391.153Z" fill="black"/>
<path d="M129.399 391.153L113.409 399.146V383.16L129.399 391.153Z" fill="black"/>
<path d="M108.846 391.153L92.8564 399.146V383.16L108.846 391.153Z" fill="black"/>
<path d="M88.2937 391.153L72.3038 399.146V383.16L88.2937 391.153Z" fill="black"/>
<path d="M67.7412 391.153L51.7513 399.146V383.16L67.7412 391.153Z" fill="black"/>
<path d="M47.1886 391.153L31.1988 399.146V383.16L47.1886 391.153Z" fill="black"/>
<path d="M26.6361 391.153L10.6462 399.146V383.16L26.6361 391.153Z" fill="black"/>
<path d="M448.333 411.7L431.603 420.063V403.337L448.333 411.7Z" fill="black"/>
<path d="M427.781 411.7L411.051 420.063V403.337L427.781 411.7Z" fill="black"/>
<path d="M407.228 411.7L390.498 420.063V403.337L407.228 411.7Z" fill="black"/>
<path d="M386.676 411.7L369.946 420.063V403.337L386.676 411.7Z" fill="black"/>
<path d="M366.123 411.7L349.393 420.063V403.337L366.123 411.7Z" fill="black"/>
<path d="M345.57 411.7L328.841 420.063V403.337L345.57 411.7Z" fill="black"/>
<path d="M325.018 411.7L308.288 420.063V403.337L325.018 411.7Z" fill="black"/>
<path d="M304.465 411.7L287.736 420.063V403.337L304.465 411.7Z" fill="black"/>
<path d="M283.913 411.7L267.183 420.063V403.337L283.913 411.7Z" fill="black"/>
<path d="M263.36 411.7L246.631 420.063V403.337L263.36 411.7Z" fill="black"/>
<path d="M242.808 411.7L226.078 420.063V403.337L242.808 411.7Z" fill="black"/>
<path d="M222.255 411.7L205.525 420.063V403.337L222.255 411.7Z" fill="black"/>
<path d="M201.703 411.7L184.973 420.063V403.337L201.703 411.7Z" fill="black"/>
<path d="M181.15 411.7L164.42 420.063V403.337L181.15 411.7Z" fill="black"/>
<path d="M160.598 411.7L143.868 420.063V403.337L160.598 411.7Z" fill="black"/>
<path d="M140.045 411.7L123.315 420.063V403.337L140.045 411.7Z" fill="black"/>
<path d="M119.493 411.7L102.763 420.063V403.337L119.493 411.7Z" fill="black"/>
<path d="M98.94 411.7L82.2102 420.063V403.337L98.94 411.7Z" fill="black"/>
<path d="M78.3874 411.7L61.6576 420.063V403.337L78.3874 411.7Z" fill="black"/>
<path d="M57.8349 411.7L41.1051 420.063V403.337L57.8349 411.7Z" fill="black"/>
<path d="M37.2823 411.7L20.5525 420.063V403.337L37.2823 411.7Z" fill="black"/>
<path d="M16.7298 411.7L0 420.063V403.337L16.7298 411.7Z" fill="black"/>
<path d="M459 432.247L441.489 441V423.494L459 432.247Z" fill="black"/>
<path d="M438.447 432.247L420.937 441V423.494L438.447 432.247Z" fill="black"/>
<path d="M417.895 432.247L400.384 441V423.494L417.895 432.247Z" fill="black"/>
<path d="M397.342 432.247L379.832 441V423.494L397.342 432.247Z" fill="black"/>
<path d="M376.79 432.247L359.279 441V423.494L376.79 432.247Z" fill="black"/>
<path d="M356.237 432.247L338.727 441V423.494L356.237 432.247Z" fill="black"/>
<path d="M335.685 432.247L318.174 441V423.494L335.685 432.247Z" fill="black"/>
<path d="M315.132 432.247L297.621 441V423.494L315.132 432.247Z" fill="black"/>
<path d="M294.58 432.247L277.069 441V423.494L294.58 432.247Z" fill="black"/>
<path d="M274.027 432.247L256.516 441V423.494L274.027 432.247Z" fill="black"/>
<path d="M253.475 432.247L235.964 441V423.494L253.475 432.247Z" fill="black"/>
<path d="M232.922 432.247L215.411 441V423.494L232.922 432.247Z" fill="black"/>
<path d="M212.369 432.247L194.859 441V423.494L212.369 432.247Z" fill="black"/>
<path d="M191.817 432.247L174.306 441V423.494L191.817 432.247Z" fill="black"/>
<path d="M171.264 432.247L153.754 441V423.494L171.264 432.247Z" fill="black"/>
<path d="M150.712 432.247L133.201 441V423.494L150.712 432.247Z" fill="black"/>
<path d="M130.159 432.247L112.648 441V423.494L130.159 432.247Z" fill="black"/>
<path d="M109.607 432.247L92.0959 441V423.494L109.607 432.247Z" fill="black"/>
<path d="M89.0542 432.247L71.5434 441V423.494L89.0542 432.247Z" fill="black"/>
<path d="M68.5016 432.247L50.9908 441V423.494L68.5016 432.247Z" fill="black"/>
<path d="M47.9491 432.247L30.4383 441V423.494L47.9491 432.247Z" fill="black"/>
<path d="M27.3965 432.247L9.88575 441V423.494L27.3965 432.247Z" fill="black"/>
</svg>
